<?xml version="1.0" encoding="UTF-8"?>
<svg xmlns="http://www.w3.org/2000/svg" width="584" height="584" viewBox="0 0 584 584" fill="none">
  <rect width="584" height="584" fill="#F7F7F7"></rect>
  <g clip-path="url(#clip0_3502_44635)">
    <path d="M224.48 387.626H220.655L217.802 368.112L208.207 388.533L198.677 368.112L195.825 387.626H192L197.057 356.572L208.272 380.559L219.488 356.572L224.48 387.626Z" fill="#C32126"></path>
    <path d="M239.78 357.479H236.02V387.625H239.78V357.479Z" fill="#C32126"></path>
    <path d="M269.601 379.586C269.601 382.309 268.758 384.449 267.072 385.94C265.387 387.496 263.118 388.274 260.2 388.274C258.191 388.274 256.376 387.82 254.884 386.977C253.393 386.069 252.291 384.838 251.578 383.217L254.171 380.883C254.625 382.115 255.403 383.087 256.505 383.736C257.607 384.449 258.839 384.773 260.265 384.773C262.016 384.773 263.377 384.319 264.35 383.476C265.322 382.633 265.776 381.402 265.776 379.781C265.776 378.484 265.322 377.317 264.35 376.345C263.377 375.372 261.821 374.27 259.552 373.168C256.959 371.872 255.144 370.575 254.106 369.278C253.069 367.982 252.551 366.426 252.551 364.481C252.551 362.212 253.329 360.397 254.884 358.971C256.44 357.609 258.45 356.896 261.043 356.896C262.599 356.896 264.025 357.22 265.192 357.804C266.359 358.387 267.332 359.295 268.175 360.526L265.711 362.99C265.257 362.212 264.609 361.564 263.766 361.11C262.923 360.656 262.016 360.462 260.978 360.462C259.552 360.462 258.45 360.786 257.607 361.499C256.765 362.212 256.376 363.12 256.376 364.351C256.376 365.454 256.7 366.426 257.348 367.204C257.996 367.982 259.293 368.89 261.303 369.992C264.739 371.872 267.008 373.492 268.045 374.854C269.082 376.086 269.601 377.706 269.601 379.586Z" fill="#C32126"></path>
    <path d="M297.997 379.586C297.997 382.309 297.155 384.449 295.469 385.94C293.783 387.496 291.514 388.274 288.597 388.274C286.587 388.274 284.772 387.82 283.281 386.977C281.79 386.069 280.688 384.838 279.975 383.217L282.568 380.883C283.022 382.115 283.8 383.087 284.902 383.736C286.004 384.449 287.236 384.773 288.662 384.773C290.412 384.773 291.774 384.319 292.746 383.476C293.719 382.633 294.172 381.402 294.172 379.781C294.172 378.484 293.719 377.317 292.746 376.345C291.774 375.372 290.218 374.27 287.949 373.168C285.355 371.872 283.54 370.575 282.503 369.278C281.466 367.982 280.947 366.426 280.947 364.481C280.947 362.212 281.725 360.397 283.281 358.971C284.837 357.609 286.847 356.896 289.44 356.896C290.996 356.896 292.422 357.22 293.589 357.804C294.756 358.387 295.728 359.295 296.571 360.526L294.108 362.99C293.654 362.212 293.005 361.564 292.163 361.11C291.32 360.656 290.412 360.462 289.375 360.462C287.949 360.462 286.847 360.786 286.004 361.499C285.161 362.212 284.772 363.12 284.772 364.351C284.772 365.454 285.096 366.426 285.744 367.204C286.393 367.982 287.689 368.89 289.699 369.992C293.135 371.872 295.404 373.492 296.441 374.854C297.479 376.086 297.997 377.706 297.997 379.586Z" fill="#C32126"></path>
    <path d="M324.642 360.851H317.77V387.625H314.075V360.851H307.203V357.479H324.642V360.851Z" fill="#C32126"></path>
    <path d="M357.251 387.625H353.491V373.298H339.618V387.625H335.857V357.479H339.618V369.797H353.491V357.479H357.251V387.625Z" fill="#C32126"></path>
    <path d="M392 376.28C392 380.3 391.157 383.282 389.407 385.292C387.657 387.301 384.999 388.274 381.433 388.274C377.932 388.274 375.274 387.301 373.459 385.292C371.708 383.282 370.801 380.3 370.801 376.345V357.544H374.561V377.123C374.561 379.716 375.144 381.661 376.247 382.893C377.349 384.189 379.099 384.838 381.368 384.838C383.702 384.838 385.387 384.189 386.49 382.958C387.592 381.726 388.175 379.781 388.175 377.123V357.544H391.935V376.28H392Z" fill="#C32126"></path>
    <path d="M239.326 417.901H237.511L233.945 412.261H233.491V417.901H232V405.843H234.723C236.019 405.843 236.992 406.102 237.705 406.686C238.353 407.269 238.742 408.047 238.742 409.084C238.742 409.992 238.483 410.77 237.9 411.353C237.316 411.937 236.538 412.196 235.566 412.196L239.326 417.901ZM237.186 409.149C237.186 408.501 236.992 407.982 236.538 407.658C236.084 407.334 235.436 407.204 234.528 407.204H233.491V410.964H234.528C235.436 410.964 236.149 410.835 236.538 410.511C236.992 410.251 237.186 409.797 237.186 409.149Z" fill="#C32126"></path>
    <path d="M250.281 417.901H243.928V405.778H250.281V407.204H245.419V410.705H250.281V412.131H245.419V416.475H250.281V417.901Z" fill="#C32126"></path>
    <path d="M261.692 414.659C261.692 415.762 261.368 416.604 260.72 417.188C260.071 417.836 259.164 418.095 257.932 418.095C257.089 418.095 256.441 417.901 255.793 417.577C255.209 417.253 254.755 416.734 254.496 416.086L255.533 415.113C255.728 415.632 256.052 415.956 256.441 416.28C256.895 416.54 257.413 416.669 257.932 416.669C258.645 416.669 259.164 416.475 259.553 416.151C259.942 415.826 260.136 415.308 260.136 414.659C260.136 414.141 259.942 413.687 259.553 413.298C259.164 412.909 258.516 412.455 257.608 412.001C256.571 411.483 255.858 410.964 255.404 410.446C255.015 409.927 254.755 409.279 254.755 408.501C254.755 407.593 255.08 406.88 255.663 406.296C256.311 405.713 257.089 405.454 258.127 405.454C258.775 405.454 259.293 405.583 259.812 405.843C260.266 406.102 260.655 406.426 260.979 406.945L260.007 407.917C259.812 407.593 259.553 407.334 259.229 407.204C258.905 407.01 258.516 406.945 258.127 406.945C257.543 406.945 257.089 407.074 256.765 407.399C256.441 407.658 256.246 408.047 256.246 408.501C256.246 408.954 256.376 409.343 256.635 409.668C256.895 409.992 257.413 410.381 258.191 410.77C259.553 411.483 260.46 412.131 260.914 412.715C261.498 413.233 261.692 413.881 261.692 414.659Z" fill="#C32126"></path>
    <path d="M272.388 407.139H269.665V417.901H268.11V407.139H265.387V405.778H272.388V407.139Z" fill="#C32126"></path>
    <path d="M286.069 417.901H284.383L282.827 414.4H277.835L276.279 417.901H274.594L280.299 405.454L286.069 417.901ZM282.308 413.104L280.364 408.695L278.419 413.104H282.308Z" fill="#C32126"></path>
    <path d="M298.127 413.363C298.127 414.984 297.803 416.151 297.09 416.994C296.377 417.771 295.339 418.16 293.913 418.16C292.487 418.16 291.45 417.771 290.736 416.929C290.023 416.151 289.699 414.919 289.699 413.363V405.843H291.19V413.687C291.19 414.724 291.45 415.502 291.839 416.021C292.292 416.54 293.006 416.799 293.913 416.799C294.821 416.799 295.534 416.54 295.988 416.021C296.442 415.502 296.636 414.724 296.636 413.687V405.843H298.127V413.363Z" fill="#C32126"></path>
    <path d="M310.898 417.901H309.083L305.517 412.261H305.063V417.901H303.572V405.843H306.295C307.592 405.843 308.564 406.102 309.277 406.686C309.926 407.269 310.315 408.047 310.315 409.084C310.315 409.992 310.055 410.77 309.472 411.353C308.888 411.937 308.11 412.196 307.138 412.196L310.898 417.901ZM308.759 409.149C308.759 408.501 308.564 407.982 308.11 407.658C307.657 407.334 307.008 407.204 306.101 407.204H305.063V410.964H306.101C307.008 410.964 307.721 410.835 308.11 410.511C308.564 410.251 308.759 409.797 308.759 409.149Z" fill="#C32126"></path>
    <path d="M325.939 417.901H324.254L322.698 414.4H317.706L316.15 417.901H314.529L320.234 405.454L325.939 417.901ZM322.179 413.104L320.234 408.695L318.289 413.104H322.179Z" fill="#C32126"></path>
    <path d="M340.525 418.225L331.708 409.084V417.901H330.217V405.454L339.034 414.595V405.778H340.525V418.225Z" fill="#C32126"></path>
    <path d="M352 407.139H349.277V417.901H347.786V407.139H344.998V405.778H352V407.139Z" fill="#C32126"></path>
    <path d="M292.033 281.953C294.302 279.684 298.516 280.721 299.812 281.304C301.044 281.888 304.415 282.731 304.415 282.731C301.757 287.009 298.775 291.159 292.033 290.899C285.291 291.223 282.308 287.009 279.65 282.731C279.65 282.731 283.022 281.888 284.253 281.304C285.485 280.656 289.699 279.684 292.033 281.953Z" fill="#C32126"></path>
    <path d="M289.18 328.306C289.18 329.862 290.411 331.094 291.967 331.094C293.523 331.094 294.755 329.862 294.755 328.306C294.755 326.75 293.523 325.519 291.967 325.519C290.411 325.519 289.18 326.815 289.18 328.306Z" fill="#1E1E1E"></path>
    <path d="M285.419 326.556C285.419 328.112 284.187 329.343 282.631 329.343C281.076 329.343 279.844 328.112 279.844 326.556C279.844 325 281.076 323.768 282.631 323.768C284.187 323.768 285.419 325.065 285.419 326.556Z" fill="#1E1E1E"></path>
    <path d="M277.9 321.499C277.9 323.055 276.668 324.287 275.112 324.287C273.556 324.287 272.324 323.055 272.324 321.499C272.324 319.943 273.556 318.711 275.112 318.711C276.603 318.711 277.9 320.008 277.9 321.499Z" fill="#1E1E1E"></path>
    <path d="M298.451 326.556C298.451 328.112 299.683 329.343 301.239 329.343C302.795 329.343 304.027 328.112 304.027 326.556C304.027 325 302.795 323.768 301.239 323.768C299.748 323.768 298.451 325.065 298.451 326.556Z" fill="#1E1E1E"></path>
    <path d="M306.166 321.434C306.166 322.99 307.398 324.222 308.954 324.222C310.51 324.222 311.741 322.99 311.741 321.434C311.741 319.878 310.51 318.646 308.954 318.646C307.398 318.646 306.166 319.878 306.166 321.434Z" fill="#1E1E1E"></path>
    <path d="M346.037 233.784C345.453 229.506 347.592 224.773 348.889 219.651C351.742 208.436 345.259 195.47 333.46 192.747C333.46 192.747 329.116 163.638 293.395 165C273.686 165.778 255.923 179.003 252.293 199.684C252.293 199.684 250.477 208.695 242.179 211.548C231.158 215.308 231.806 225.486 232.001 228.403C232.39 234.238 236.798 238.776 238.808 240.462C251.126 251.094 224.481 263.801 253.784 274.044C253.784 274.044 257.479 275.275 260.591 277.285C260.591 277.285 259.035 273.525 257.414 267.69C253.589 253.946 261.628 248.177 268.889 246.621C294.237 241.694 286.912 225.551 294.237 215.632C300.72 206.945 309.343 207.269 315.891 210.64C321.142 213.363 321.66 218.874 322.244 222.569C323.022 227.431 322.633 227.042 327.171 235.664C328.597 238.128 329.246 240.203 329.635 242.99C330.348 247.723 329.894 252.455 329.44 255.049C328.273 261.272 326.458 269.311 323.541 277.156C328.986 274.173 332.422 275.146 340.202 271.45C345.259 269.052 352.908 264.643 352.001 251.742C351.482 244.416 347.203 242.342 346.037 233.784Z" fill="#1E1E1E"></path>
  </g>
  <defs>
    <clipPath id="clip0_3502_44635">
      <rect width="200" height="253.225" fill="white" transform="translate(192 165)"></rect>
    </clipPath>
  </defs>
</svg>
