<?xml version="1.0" encoding="UTF-8"?>
<svg xmlns="http://www.w3.org/2000/svg" width="1180" height="700" viewBox="0 0 1180 700" fill="none">
  <path d="M1180 0H0V700H1180V0Z" fill="#FFFEF1"></path>
  <path d="M550.022 338.926C549.012 340.08 525.506 368.634 499.981 368.634C493.924 368.634 489.886 366.759 487.867 362.865C481.81 351.328 497.818 327.245 499.692 324.505C500.413 323.351 502.144 322.919 503.298 323.784C504.451 324.505 504.74 326.236 504.019 327.389C497.818 336.619 489.165 353.78 492.626 360.413C493.059 361.135 494.212 363.442 500.125 363.442C523.199 363.442 545.84 335.898 546.128 335.609C546.993 334.456 548.724 334.311 549.878 335.177C550.743 336.186 550.887 337.772 550.022 338.926ZM507.336 314.555L507.48 309.94C507.48 308.498 508.778 307.344 510.22 307.488C511.662 307.632 512.816 308.786 512.816 310.228L512.527 314.699C512.527 315.564 511.95 316.429 511.373 316.862C510.941 317.15 510.364 317.295 509.787 317.295C508.345 317.295 507.191 315.997 507.336 314.555Z" fill="#1E1E1E"></path>
  <path d="M645.49 339.358C626.31 350.607 606.265 363.009 592.565 372.527C592.132 377.43 590.69 381.756 587.806 384.929C584.922 388.101 580.74 389.832 575.26 389.832C571.799 389.832 570.789 388.101 570.501 386.948C570.068 385.073 569.347 382.333 587.662 369.498C587.95 364.163 587.229 357.961 586.652 352.337C586.508 350.895 586.364 349.309 586.22 347.867C580.307 352.914 572.375 359.259 562.136 367.335C558.099 370.508 553.484 374.113 549.157 377.574C547.571 388.39 543.389 396.754 531.42 396.754C528.391 396.754 527.382 395.168 527.093 394.158C525.94 390.841 529.689 386.515 544.254 374.69C544.831 370.075 544.975 364.595 544.975 358.394C545.12 341.81 545.264 323.062 561.271 323.062C562.713 323.062 563.867 324.216 563.867 325.658C563.867 327.1 562.713 328.254 561.271 328.254C551.176 328.254 550.311 339.647 550.167 358.394C550.167 362.288 550.023 366.326 549.879 370.219C552.619 368.056 555.647 365.749 558.964 363.153C567.328 356.664 578.144 348.155 585.931 341.377C585.787 335.897 586.364 331.427 588.815 328.687C590.257 327.1 592.276 326.091 594.872 326.091C598.766 326.091 600.064 327.677 600.641 329.264C601.65 332.292 599.199 336.33 591.267 343.54C591.411 346.28 591.7 349.02 591.988 351.76C592.421 356.375 592.853 361.134 592.998 365.893C596.891 363.297 601.362 360.413 606.698 356.952C624.58 345.559 642.894 334.888 643.039 334.744C644.336 334.023 645.923 334.455 646.644 335.753C647.076 337.051 646.644 338.637 645.49 339.358ZM542.668 382.91C538.486 386.371 535.025 389.399 533.294 391.418C538.197 390.841 540.937 387.813 542.668 382.91ZM586.508 376.709C581.893 379.881 578.576 382.621 576.846 384.496C580.019 384.208 582.326 383.198 583.912 381.324C584.922 380.17 585.931 378.584 586.508 376.709ZM590.979 336.474C593.142 334.311 594.584 332.58 595.161 331.427C595.016 331.427 594.728 331.283 594.584 331.283C593.286 331.283 592.709 331.715 592.421 332.148C591.7 333.013 591.267 334.599 590.979 336.474Z" fill="#1E1E1E"></path>
  <path d="M757.253 338.926C756.243 340.08 732.737 368.634 707.068 368.634C703.318 368.634 700.434 367.48 698.559 365.172C694.666 360.269 696.396 351.905 698.127 343.685C699.136 338.205 700.722 331.283 698.992 329.264C698.848 329.12 698.415 328.543 696.685 328.543C691.06 328.543 677.072 348.011 667.554 360.702C655.152 377.719 652.268 381.324 649.239 381.324C647.941 381.324 646.932 380.603 646.355 379.738C645.201 377.575 640.01 378.007 669.717 328.255C683.994 304.316 708.077 263.36 708.221 263.216C708.942 261.918 710.529 261.629 711.827 262.495C712.98 263.216 713.413 264.802 712.548 266.1C690.051 301.431 660.92 354.789 653.421 370.941C656.306 367.191 659.911 362.432 663.372 357.674C680.1 335.032 688.897 323.351 696.685 323.351C699.569 323.351 701.588 324.217 703.03 326.091C706.347 330.129 704.76 337.34 703.174 344.839C701.876 351.617 700.29 358.971 702.597 362C702.886 362.432 703.895 363.442 707.068 363.442C730.141 363.442 752.927 335.898 753.071 335.609C753.936 334.456 755.667 334.311 756.82 335.177C757.974 336.186 758.118 337.772 757.253 338.926Z" fill="#1E1E1E"></path>
  <path d="M842.482 338.782C841.472 339.935 818.11 368.489 792.585 368.489C786.672 368.489 782.49 366.614 780.327 362.576C778.452 359.26 778.452 354.933 779.317 350.174C769.511 362.288 760.858 368.489 753.648 368.489C749.466 368.489 747.447 366.47 746.582 364.74C741.39 355.222 757.253 329.408 760.57 324.361C761.291 323.063 762.877 322.774 764.175 323.64C765.329 324.361 765.762 325.947 764.896 327.245C757.542 338.782 748.312 357.241 751.052 362.288C751.196 362.576 751.485 363.297 753.648 363.297C764.464 363.297 779.894 341.954 787.682 329.408C788.979 326.812 790.277 325.082 790.566 324.505C791.287 323.351 792.873 322.919 794.027 323.64C795.325 324.361 795.613 325.947 795.036 327.101C794.892 327.245 794.027 328.975 792.152 331.715C786.961 341.089 781.625 354.356 784.797 359.981C785.23 360.846 786.528 363.297 792.441 363.297C815.514 363.297 838.155 335.753 838.444 335.465C839.309 334.311 841.039 334.167 842.049 335.032C843.347 335.898 843.347 337.628 842.482 338.782Z" fill="#1E1E1E"></path>
  <path d="M438.404 419.54C439.558 411.608 443.74 398.341 450.951 380.171C458.161 361.856 465.804 343.253 473.88 324.073C481.667 305.614 487.58 291.193 491.618 280.521C492.339 278.502 492.627 277.06 492.627 276.051C492.627 274.897 492.195 274.32 491.33 274.32C490.32 274.32 488.59 275.33 486.282 277.204C482.533 280.521 477.918 285.569 472.726 292.058C470.131 295.231 465.804 301.143 459.892 309.796C454.556 317.583 448.643 325.803 442.442 334.456C436.241 343.108 430.328 350.607 424.848 356.808C419.368 363.01 415.331 366.182 412.735 366.182H412.158C410.716 365.894 409.995 364.452 409.995 361.856C409.995 359.548 410.572 356.52 411.581 352.482C416.34 335.465 418.792 324.794 418.792 320.179C418.792 318.304 418.503 317.295 417.926 317.151H417.494C415.042 317.151 410.716 321.621 404.515 330.706C398.314 339.792 391.68 350.031 385.046 361.279C378.269 372.672 372.644 382.334 368.174 390.265C366.443 393.15 365.145 395.457 363.992 397.476C362.838 399.206 362.117 400.36 361.828 400.937C360.963 401.946 360.242 402.523 359.521 402.523C359.088 402.523 358.656 402.379 358.223 401.946C357.935 401.658 357.646 401.225 357.646 400.649C357.646 398.053 359.81 392.573 364.136 384.497C364.28 384.209 364.424 384.064 364.424 383.776C368.462 375.123 373.077 364.74 378.268 352.915C383.46 341.09 388.075 329.264 392.113 317.727C396.151 306.191 398.17 296.817 398.17 289.895C398.17 286.722 397.593 284.126 396.439 282.396C395.574 281.386 394.276 280.81 392.545 280.81C386.921 280.81 378.701 284.847 367.885 292.779C357.07 300.711 346.975 309.796 337.89 319.746C328.804 329.697 324.19 337.629 324.19 343.253C324.19 344.983 324.766 346.281 325.776 347.435C326.064 347.723 326.497 348.156 327.074 348.444C327.651 348.733 328.083 349.021 328.516 349.31C328.804 349.598 329.093 350.175 329.093 350.752C329.093 351.04 329.093 351.329 328.949 351.617C328.516 352.338 327.939 352.626 327.362 352.626C326.497 352.626 325.776 352.338 324.911 351.761C324.19 351.184 323.469 350.607 323.036 350.175C321.45 348.444 320.729 346.425 320.729 343.974C320.729 338.782 323.469 332.293 328.949 324.794C334.429 317.295 341.062 309.94 349.138 302.73C357.07 295.519 365.145 289.462 373.221 284.559C381.297 279.656 387.931 277.204 393.266 277.204C396.295 277.204 398.458 278.214 400.044 280.089C401.631 282.396 402.352 285.424 402.352 289.462C402.352 295.663 400.91 303.451 398.025 312.824C395.141 322.198 391.536 332.004 387.498 342.099C383.316 352.194 379.278 361.712 375.24 370.653C380.287 362 385.623 353.347 391.247 344.695C396.872 336.042 402.207 328.543 407.111 322.342C412.014 316.141 415.907 313.113 418.647 313.113C418.936 313.113 419.08 313.113 419.368 313.257C421.387 313.545 422.397 316.141 422.397 320.756C422.397 327.101 420.234 338.061 415.763 353.492C414.898 356.232 414.465 358.106 414.465 359.26C414.465 359.837 414.61 360.125 415.042 360.125C415.763 360.125 417.205 358.827 419.368 356.232C423.551 351.184 428.742 344.551 435.087 336.186C441.288 327.822 447.49 319.602 453.402 311.526C461.766 300.278 467.391 292.923 470.275 289.318C475.466 282.973 480.225 278.214 484.407 274.753C488.157 271.724 491.185 270.282 493.348 270.282C495.223 270.282 496.377 271.724 496.521 274.464C496.521 275.906 496.233 277.637 495.656 279.8C490.176 297.538 481.812 318.737 470.707 343.541C463.93 358.827 457.873 373.249 452.537 386.949C447.201 400.504 444.028 411.609 443.019 419.973C442.875 420.405 442.731 420.838 442.298 421.271C442.01 421.559 441.577 421.847 441 421.847H440.712C438.981 421.271 438.404 420.55 438.404 419.54Z" fill="#1E1E1E"></path>
  <path d="M440.566 421.991H440.134C438.836 421.559 438.115 420.837 438.115 419.54C439.268 411.608 443.595 398.341 450.661 380.026C457.871 361.855 465.515 342.964 473.59 323.928C481.378 305.613 487.29 290.904 491.328 280.376C492.049 278.358 492.338 276.915 492.338 276.05C492.338 274.608 491.761 274.464 491.328 274.464C490.319 274.464 488.732 275.473 486.425 277.204C482.676 280.521 478.061 285.568 472.869 292.058C470.273 295.23 465.947 301.287 460.035 309.795C454.699 317.439 448.93 325.659 442.585 334.455C436.384 343.108 430.471 350.607 424.991 356.808C419.367 363.153 415.329 366.182 412.589 366.182H412.012C410.426 365.749 409.561 364.307 409.561 361.567C409.561 359.26 410.138 356.087 411.147 352.193C415.906 335.321 418.358 324.505 418.358 320.034C418.358 317.583 417.925 317.294 417.637 317.294H417.348C415.041 317.294 410.715 321.909 404.514 330.85C398.312 339.935 391.679 350.174 385.045 361.423C378.123 372.96 372.643 382.478 368.172 390.409C366.586 393.293 365.144 395.601 363.99 397.62C362.837 399.494 362.116 400.504 361.827 401.081C360.962 402.234 360.097 402.811 359.231 402.811C358.655 402.811 358.222 402.667 357.789 402.234C357.357 401.946 357.213 401.513 357.213 400.792C357.213 398.052 359.376 392.716 363.702 384.496C363.846 384.352 363.846 384.064 363.99 383.92L364.135 383.775C368.172 374.979 372.931 364.595 377.979 352.914C383.17 341.089 387.785 329.264 391.823 317.727C395.861 306.19 397.88 296.961 397.88 290.039C397.88 286.866 397.303 284.414 396.149 282.684C395.428 281.674 394.13 281.242 392.4 281.242C386.92 281.242 378.556 285.28 367.884 293.211C357.068 301.143 346.974 310.228 337.888 320.179C328.803 330.129 324.188 337.916 324.188 343.541C324.188 345.127 324.621 346.425 325.775 347.434C326.063 347.723 326.496 348.155 327.072 348.444C327.649 348.732 328.226 349.021 328.515 349.309C328.947 349.742 329.091 350.319 329.091 350.895C329.091 351.184 329.091 351.472 328.947 351.905C328.37 352.626 327.794 353.059 327.072 353.059C326.207 353.059 325.342 352.77 324.477 352.049C323.756 351.472 323.035 350.895 322.602 350.463C321.016 348.732 320.15 346.569 320.15 343.973C320.15 338.638 322.89 332.148 328.37 324.649C333.85 317.15 340.628 309.651 348.56 302.441C356.491 295.23 364.711 289.173 372.643 284.27C380.719 279.367 387.497 276.915 392.688 276.915C395.717 276.915 398.168 277.925 399.755 279.944C401.341 282.251 402.206 285.424 402.206 289.462C402.206 295.663 400.764 303.594 397.88 312.968C394.996 322.342 391.39 332.148 387.352 342.243C383.891 350.607 380.575 358.683 377.114 366.182C381.44 358.971 385.91 351.761 390.525 344.406C396.149 335.753 401.485 328.254 406.388 322.053C411.436 315.708 415.329 312.68 418.214 312.68C418.502 312.68 418.79 312.68 419.079 312.824C421.242 313.256 422.251 315.708 422.251 320.611C422.251 326.956 420.088 338.061 415.618 353.491C414.752 356.231 414.32 358.106 414.32 359.115C414.32 359.692 414.464 359.692 414.608 359.692C414.897 359.692 415.906 359.26 418.646 355.799C422.828 350.751 428.02 344.118 434.365 335.753C440.422 327.678 446.623 319.313 452.68 311.093C461.044 299.989 466.668 292.49 469.552 288.885C474.744 282.54 479.647 277.636 483.685 274.32C487.579 271.291 490.607 269.849 492.77 269.849C494.789 269.849 495.943 271.291 496.231 274.175C496.231 275.618 495.943 277.492 495.366 279.655C489.886 297.249 481.522 318.736 470.418 343.541C463.64 358.827 457.583 373.392 452.247 386.948C446.911 400.504 443.739 411.608 442.729 419.828C442.585 420.405 442.297 420.837 441.864 421.27C441.576 421.703 441.143 421.991 440.566 421.991ZM440.278 421.414H440.566C440.999 421.414 441.287 421.27 441.576 420.982C441.864 420.693 442.152 420.261 442.297 419.828C443.306 411.464 446.623 400.36 451.959 386.804C457.295 373.248 463.351 358.683 470.129 343.396C481.233 318.736 489.598 297.249 495.078 279.655C495.655 277.492 495.943 275.762 495.943 274.32C495.655 271.724 494.789 270.426 492.915 270.426C490.896 270.426 487.867 271.868 484.118 274.896C479.936 278.213 475.177 283.116 469.985 289.318C467.101 292.923 461.477 300.422 453.112 311.526C446.911 319.89 440.855 328.254 434.798 336.186C428.597 344.55 423.261 351.328 419.079 356.231C416.05 359.836 415.041 360.269 414.608 360.269C414.32 360.269 413.743 360.125 413.743 359.115C413.743 357.962 414.176 356.087 415.041 353.347C419.367 337.916 421.675 326.956 421.675 320.611C421.675 316.141 420.665 313.689 418.79 313.401C418.646 313.256 418.358 313.256 418.214 313.256C415.618 313.256 411.724 316.285 406.821 322.342C401.918 328.399 396.582 335.898 390.958 344.694C385.334 353.347 379.998 362.144 374.95 370.652L374.518 370.364C378.556 361.567 382.738 352.049 386.776 341.954C390.814 331.86 394.419 322.053 397.303 312.68C400.187 303.306 401.629 295.519 401.629 289.318C401.629 285.424 400.908 282.395 399.322 280.088C397.88 278.213 395.572 277.348 392.688 277.348C387.497 277.348 380.863 279.8 372.787 284.703C364.711 289.606 356.636 295.663 348.704 302.873C340.772 310.084 333.995 317.439 328.515 324.938C323.179 332.436 320.439 338.782 320.439 343.973C320.439 346.425 321.16 348.444 322.746 350.03C323.179 350.463 323.9 351.04 324.621 351.616C325.342 352.193 326.063 352.482 326.928 352.482C327.361 352.482 327.938 352.193 328.37 351.616C328.515 351.328 328.515 351.04 328.515 350.895C328.515 350.319 328.37 350.03 328.082 349.597C327.794 349.309 327.361 349.021 326.784 348.732C326.207 348.3 325.775 348.011 325.486 347.579C324.332 346.425 323.756 344.983 323.756 343.252C323.756 337.484 328.37 329.552 337.6 319.458C346.685 309.507 356.78 300.422 367.596 292.49C378.411 284.559 386.776 280.376 392.544 280.376C394.419 280.376 395.861 280.953 396.726 282.107C398.024 283.982 398.601 286.578 398.601 289.75C398.601 296.672 396.582 306.046 392.544 317.583C388.506 329.12 383.891 340.945 378.7 352.77C373.508 364.451 368.894 374.834 364.856 383.631L364.711 383.775C364.567 383.92 364.567 384.208 364.423 384.352C360.097 392.428 357.934 397.764 357.934 400.36C357.934 400.936 358.078 401.225 358.366 401.369C358.655 401.658 359.087 401.802 359.52 401.802C360.097 401.802 360.818 401.225 361.683 400.36C361.827 399.927 362.548 398.773 363.846 396.899C365 395.024 366.298 392.572 368.028 389.688C372.499 381.756 378.123 372.239 384.901 360.702C391.679 349.453 398.168 339.07 404.369 329.985C410.715 320.755 415.041 316.285 417.637 316.285H417.925C418.79 316.429 419.079 317.439 419.079 319.602C419.079 324.072 416.627 335.032 411.868 351.905C410.859 355.799 410.282 358.971 410.282 361.134C410.282 363.442 411.003 364.884 412.301 365.172H412.734C415.329 365.172 419.367 362 424.703 355.943C430.183 349.742 436.096 342.243 442.297 333.59C448.642 324.793 454.555 316.573 459.746 308.93C465.659 300.422 469.985 294.365 472.725 291.192C477.917 284.703 482.531 279.655 486.425 276.339C488.732 274.32 490.463 273.454 491.617 273.454C492.338 273.454 493.203 273.743 493.203 275.473C493.203 276.483 492.915 277.925 492.049 280.088C488.011 290.615 482.099 305.325 474.311 323.64C466.236 342.675 458.592 361.423 451.382 379.738C444.316 397.908 439.989 411.175 438.836 419.107C438.691 420.549 439.124 421.126 440.278 421.414Z" fill="#1E1E1E"></path>
  <path d="M442.728 424.443C442.584 424.443 442.44 424.443 442.152 424.443C441.142 424.299 439.7 423.578 438.835 421.27C438.402 420.261 438.979 419.107 439.988 418.674C440.998 418.242 442.152 418.819 442.584 419.828C442.728 420.117 442.728 420.261 442.873 420.405C443.161 420.261 443.738 419.828 444.026 419.396L497.096 328.11C497.673 327.101 498.826 326.812 499.836 327.389C500.845 327.966 501.134 329.12 500.557 330.129L447.487 421.559C446.911 422.136 445.036 424.443 442.728 424.443Z" fill="#1E1E1E"></path>
  <path d="M621.983 388.535C620.685 388.535 619.387 388.102 618.666 387.093C617.945 386.228 617.224 384.641 617.945 382.334C618.234 381.324 619.387 380.748 620.397 381.036C621.406 381.324 621.983 382.478 621.695 383.488C621.55 384.064 621.55 384.353 621.55 384.497C621.695 384.497 622.416 384.497 622.993 384.209C623.714 383.776 624.435 382.767 624.579 382.622L672.601 324.073C673.322 323.208 674.62 323.063 675.341 323.784C676.206 324.505 676.35 325.803 675.629 326.524L627.751 384.785C627.751 384.785 626.598 386.516 624.867 387.525C624.146 388.247 622.993 388.535 621.983 388.535Z" fill="#1E1E1E"></path>
  <path d="M704.904 304.893L721.488 303.451C721.632 302.874 721.632 302.441 721.488 301.865C721.055 299.125 717.45 299.125 716.296 299.125C708.076 299.125 688.175 300.999 668.13 303.162C675.34 291.626 680.388 284.127 680.532 283.838C681.253 282.685 680.965 280.954 679.811 280.233C678.657 279.512 676.927 279.8 676.206 280.954C676.061 281.098 670.005 290.472 661.64 303.883C639.432 306.335 625.588 307.777 623.857 307.921C622.559 308.066 621.406 309.363 621.694 310.806C621.838 312.103 622.992 312.969 624.29 312.969H624.578C625.011 312.969 636.836 311.671 658.179 309.219C644.912 330.851 627.607 359.981 618.089 381.469C617.512 382.767 618.089 384.353 619.387 384.93C619.819 385.074 620.108 385.218 620.396 385.218C621.406 385.218 622.271 384.641 622.848 383.632C632.798 361.423 651.257 330.13 664.669 308.642C679.234 307.2 694.232 305.758 704.904 304.893Z" fill="#1E1E1E"></path>
  <path d="M498.827 438.143C497.962 438.143 497.097 437.566 496.808 436.557C496.52 435.547 497.241 434.393 498.25 434.105C500.846 433.528 503.73 432.951 506.615 432.23C562.712 420.117 683.128 399.783 858.632 398.773C859.786 398.773 860.651 399.639 860.651 400.792C860.651 401.946 859.786 402.811 858.632 402.811C683.417 403.821 563.433 424.154 507.48 436.124C504.596 436.701 501.856 437.278 499.26 437.999C499.116 438.143 498.971 438.143 498.827 438.143Z" fill="#1E1E1E"></path>
</svg>
