<?xml version="1.0" encoding="UTF-8"?>
<svg xmlns="http://www.w3.org/2000/svg" width="1180" height="699" viewBox="0 0 1180 699" fill="none">
  <rect width="590" height="461" fill="#C4161C"></rect>
  <path d="M25.008 433.076V432.032H27.978L28.5 429.386H25.548V428.342H28.716L29.508 424.4H30.588L29.796 428.342H32.964L33.756 424.4H34.836L34.044 428.342H36.996V429.386H33.828L33.306 432.032H36.456V433.076H33.09L32.316 437H31.236L32.01 433.076H28.842L28.068 437H26.988L27.762 433.076H25.008ZM32.226 432.032L32.748 429.386H29.58L29.058 432.032H32.226ZM40.2058 430.7C40.2058 431.54 40.3258 432.29 40.5658 432.95C40.8058 433.61 41.1418 434.168 41.5738 434.624C42.0058 435.08 42.5158 435.428 43.1038 435.668C43.7038 435.908 44.3578 436.028 45.0658 436.028C46.5658 436.028 47.6998 435.662 48.4678 434.93C49.2358 434.198 49.7938 433.19 50.1418 431.906L51.2038 432.338C50.8678 433.79 50.1718 434.96 49.1158 435.848C48.0598 436.736 46.7158 437.18 45.0838 437.18C44.1478 437.18 43.2958 437.018 42.5278 436.694C41.7598 436.358 41.1058 435.902 40.5658 435.326C40.0258 434.75 39.6058 434.066 39.3058 433.274C39.0178 432.482 38.8738 431.624 38.8738 430.7C38.8618 429.8 39.0118 428.954 39.3238 428.162C39.6358 427.358 40.0678 426.662 40.6198 426.074C41.1838 425.486 41.8438 425.03 42.5998 424.706C43.3678 424.37 44.1958 424.208 45.0838 424.22C46.5838 424.22 47.7778 424.61 48.6658 425.39C49.5658 426.17 50.1958 427.166 50.5558 428.378L49.3858 428.9C49.1338 427.808 48.6358 426.95 47.8918 426.326C47.1598 425.69 46.2178 425.372 45.0658 425.372C44.3818 425.372 43.7398 425.498 43.1398 425.75C42.5518 426.002 42.0358 426.362 41.5918 426.83C41.1598 427.286 40.8178 427.844 40.5658 428.504C40.3258 429.152 40.2058 429.884 40.2058 430.7ZM58.2158 433.58H52.5278V432.356C53.5838 431.408 54.2978 430.4 54.6698 429.332C55.0538 428.24 55.2458 426.866 55.2458 425.21V424.4H56.3978V425.21C56.3978 426.794 56.1998 428.18 55.8038 429.368C55.4198 430.556 54.7478 431.612 53.7878 432.536H58.2158V428.288H59.3678V432.536H61.6178V433.58H59.3678V437H58.2158V433.58ZM65.1674 426.488C64.7954 427.064 64.3454 427.508 63.8174 427.82C63.2894 428.132 62.7194 428.318 62.1074 428.378L61.8734 427.316C62.7494 427.232 63.4754 426.938 64.0514 426.434C64.6394 425.918 65.0714 425.24 65.3474 424.4H66.3194V437H65.1674V426.488ZM68.544 430.79C68.544 429.866 68.646 429.008 68.85 428.216C69.054 427.412 69.354 426.716 69.75 426.128C70.158 425.528 70.662 425.06 71.262 424.724C71.862 424.388 72.552 424.22 73.332 424.22C74.496 424.22 75.414 424.526 76.086 425.138C76.758 425.738 77.148 426.542 77.256 427.55L76.158 427.874C76.062 426.974 75.756 426.314 75.24 425.894C74.736 425.474 74.07 425.264 73.242 425.264C72.75 425.264 72.288 425.384 71.856 425.624C71.424 425.852 71.046 426.206 70.722 426.686C70.41 427.154 70.158 427.748 69.966 428.468C69.786 429.188 69.696 430.028 69.696 430.988V431.204C70.02 430.532 70.518 429.98 71.19 429.548C71.85 429.116 72.57 428.9 73.35 428.9C73.938 428.9 74.484 428.996 74.988 429.188C75.492 429.38 75.93 429.656 76.302 430.016C76.674 430.364 76.962 430.784 77.166 431.276C77.382 431.768 77.49 432.32 77.49 432.932C77.49 433.568 77.388 434.144 77.184 434.66C76.98 435.176 76.692 435.626 76.32 436.01C75.948 436.382 75.51 436.67 75.006 436.874C74.502 437.078 73.944 437.18 73.332 437.18C71.76 437.18 70.566 436.592 69.75 435.416C68.946 434.252 68.544 432.71 68.544 430.79ZM76.338 433.022C76.338 432.53 76.254 432.092 76.086 431.708C75.93 431.324 75.708 431.006 75.42 430.754C75.144 430.49 74.814 430.292 74.43 430.16C74.058 430.016 73.662 429.944 73.242 429.944C72.822 429.944 72.426 430.016 72.054 430.16C71.682 430.304 71.352 430.514 71.064 430.79C70.788 431.054 70.566 431.378 70.398 431.762C70.23 432.134 70.146 432.554 70.146 433.022C70.146 433.49 70.218 433.916 70.362 434.3C70.518 434.684 70.728 435.014 70.992 435.29C71.268 435.554 71.592 435.764 71.964 435.92C72.348 436.064 72.774 436.136 73.242 436.136C73.71 436.136 74.13 436.064 74.502 435.92C74.886 435.764 75.21 435.554 75.474 435.29C75.75 435.014 75.96 434.684 76.104 434.3C76.26 433.916 76.338 433.49 76.338 433.022ZM82.0073 426.488C81.6353 427.064 81.1853 427.508 80.6572 427.82C80.1293 428.132 79.5593 428.318 78.9473 428.378L78.7133 427.316C79.5893 427.232 80.3153 426.938 80.8913 426.434C81.4793 425.918 81.9113 425.24 82.1873 424.4H83.1593V437H82.0073V426.488ZM86.7878 430.7C86.7878 431.54 86.9078 432.29 87.1478 432.95C87.3878 433.61 87.7238 434.168 88.1558 434.624C88.5878 435.08 89.0978 435.428 89.6858 435.668C90.2858 435.908 90.9398 436.028 91.6478 436.028C93.1478 436.028 94.2818 435.662 95.0498 434.93C95.8178 434.198 96.3758 433.19 96.7238 431.906L97.7858 432.338C97.4498 433.79 96.7538 434.96 95.6978 435.848C94.6418 436.736 93.2978 437.18 91.6658 437.18C90.7298 437.18 89.8778 437.018 89.1098 436.694C88.3418 436.358 87.6878 435.902 87.1478 435.326C86.6078 434.75 86.1878 434.066 85.8878 433.274C85.5998 432.482 85.4558 431.624 85.4558 430.7C85.4438 429.8 85.5938 428.954 85.9058 428.162C86.2178 427.358 86.6498 426.662 87.2018 426.074C87.7658 425.486 88.4258 425.03 89.1818 424.706C89.9498 424.37 90.7778 424.208 91.6658 424.22C93.1658 424.22 94.3598 424.61 95.2478 425.39C96.1478 426.17 96.7778 427.166 97.1378 428.378L95.9678 428.9C95.7158 427.808 95.2178 426.95 94.4738 426.326C93.7418 425.69 92.7998 425.372 91.6478 425.372C90.9638 425.372 90.3218 425.498 89.7218 425.75C89.1338 426.002 88.6178 426.362 88.1738 426.83C87.7418 427.286 87.3998 427.844 87.1478 428.504C86.9078 429.152 86.7878 429.884 86.7878 430.7Z" fill="white"></path>
  <rect x="590" width="590" height="461" fill="#231F20"></rect>
  <path d="M615.008 433.076V432.032H617.978L618.5 429.386H615.548V428.342H618.716L619.508 424.4H620.588L619.796 428.342H622.964L623.756 424.4H624.836L624.044 428.342H626.996V429.386H623.828L623.306 432.032H626.456V433.076H623.09L622.316 437H621.236L622.01 433.076H618.842L618.068 437H616.988L617.762 433.076H615.008ZM622.226 432.032L622.748 429.386H619.58L619.058 432.032H622.226ZM632.834 431.906C633.446 431.618 633.962 431.336 634.382 431.06C634.814 430.772 635.162 430.478 635.426 430.178C635.69 429.866 635.882 429.542 636.002 429.206C636.122 428.858 636.182 428.474 636.182 428.054C636.182 427.214 635.894 426.542 635.318 426.038C634.742 425.522 633.98 425.264 633.032 425.264C632.576 425.264 632.162 425.342 631.79 425.498C631.418 425.642 631.094 425.84 630.818 426.092C630.554 426.332 630.35 426.62 630.206 426.956C630.062 427.28 629.99 427.622 629.99 427.982C629.99 428.426 630.044 428.822 630.152 429.17C630.272 429.518 630.446 429.854 630.674 430.178L629.702 430.808C629.078 429.968 628.766 429.08 628.766 428.144C628.766 427.604 628.868 427.1 629.072 426.632C629.276 426.152 629.564 425.738 629.936 425.39C630.32 425.03 630.776 424.748 631.304 424.544C631.832 424.328 632.42 424.22 633.068 424.22C633.728 424.22 634.322 424.316 634.85 424.508C635.378 424.688 635.822 424.952 636.182 425.3C636.554 425.636 636.836 426.038 637.028 426.506C637.232 426.974 637.334 427.484 637.334 428.036C637.334 429.116 637.058 430.004 636.506 430.7C635.954 431.384 635.048 432.02 633.788 432.608C632.744 433.088 631.922 433.592 631.322 434.12C630.734 434.636 630.422 435.248 630.386 435.956H637.37V437H629.036C629.036 436.364 629.12 435.794 629.288 435.29C629.456 434.774 629.702 434.312 630.026 433.904C630.35 433.496 630.746 433.13 631.214 432.806C631.682 432.482 632.222 432.182 632.834 431.906ZM639.859 433.238C640.051 434.102 640.435 434.804 641.011 435.344C641.599 435.872 642.361 436.136 643.297 436.136C643.729 436.136 644.137 436.07 644.521 435.938C644.917 435.794 645.259 435.59 645.547 435.326C645.835 435.062 646.063 434.744 646.231 434.372C646.411 433.988 646.501 433.556 646.501 433.076C646.501 432.056 646.213 431.27 645.637 430.718C645.061 430.154 644.299 429.872 643.351 429.872C643.015 429.872 642.667 429.938 642.307 430.07C641.959 430.19 641.671 430.346 641.443 430.538L640.759 429.692L645.385 425.444H639.301V424.4H647.221V425.174L642.991 428.99C643.171 428.954 643.417 428.936 643.729 428.936C644.281 428.936 644.797 429.026 645.277 429.206C645.757 429.386 646.171 429.65 646.519 429.998C646.879 430.334 647.155 430.748 647.347 431.24C647.551 431.72 647.653 432.272 647.653 432.896C647.653 433.556 647.539 434.15 647.311 434.678C647.083 435.206 646.771 435.656 646.375 436.028C645.979 436.4 645.517 436.688 644.989 436.892C644.461 437.084 643.897 437.18 643.297 437.18C642.133 437.18 641.149 436.856 640.345 436.208C639.529 435.56 638.995 434.732 638.743 433.724L639.859 433.238ZM652.039 426.488C651.667 427.064 651.217 427.508 650.688 427.82C650.161 428.132 649.591 428.318 648.979 428.378L648.745 427.316C649.621 427.232 650.347 426.938 650.923 426.434C651.511 425.918 651.943 425.24 652.219 424.4H653.191V437H652.039V426.488ZM664.541 424.4V425.552H657.323V430.304H664.001V431.456H657.323V437H656.063V424.4H664.541ZM670.345 431.906C670.957 431.618 671.473 431.336 671.893 431.06C672.325 430.772 672.673 430.478 672.937 430.178C673.201 429.866 673.393 429.542 673.513 429.206C673.633 428.858 673.693 428.474 673.693 428.054C673.693 427.214 673.405 426.542 672.829 426.038C672.253 425.522 671.491 425.264 670.543 425.264C670.087 425.264 669.673 425.342 669.301 425.498C668.929 425.642 668.605 425.84 668.329 426.092C668.065 426.332 667.861 426.62 667.717 426.956C667.573 427.28 667.501 427.622 667.501 427.982C667.501 428.426 667.555 428.822 667.663 429.17C667.783 429.518 667.957 429.854 668.185 430.178L667.213 430.808C666.589 429.968 666.277 429.08 666.277 428.144C666.277 427.604 666.379 427.1 666.583 426.632C666.787 426.152 667.075 425.738 667.447 425.39C667.831 425.03 668.287 424.748 668.815 424.544C669.343 424.328 669.931 424.22 670.579 424.22C671.239 424.22 671.833 424.316 672.361 424.508C672.889 424.688 673.333 424.952 673.693 425.3C674.065 425.636 674.347 426.038 674.539 426.506C674.743 426.974 674.845 427.484 674.845 428.036C674.845 429.116 674.569 430.004 674.017 430.7C673.465 431.384 672.559 432.02 671.299 432.608C670.255 433.088 669.433 433.592 668.833 434.12C668.245 434.636 667.933 435.248 667.897 435.956H674.881V437H666.547C666.547 436.364 666.631 435.794 666.799 435.29C666.967 434.774 667.213 434.312 667.537 433.904C667.861 433.496 668.257 433.13 668.725 432.806C669.193 432.482 669.733 432.182 670.345 431.906ZM676.614 430.7C676.614 429.716 676.728 428.828 676.956 428.036C677.196 427.232 677.532 426.548 677.964 425.984C678.396 425.42 678.918 424.988 679.53 424.688C680.142 424.376 680.82 424.22 681.564 424.22C682.308 424.22 682.986 424.376 683.598 424.688C684.21 424.988 684.732 425.42 685.164 425.984C685.596 426.548 685.926 427.232 686.154 428.036C686.394 428.828 686.514 429.716 686.514 430.7C686.514 431.684 686.394 432.578 686.154 433.382C685.926 434.174 685.596 434.852 685.164 435.416C684.732 435.98 684.21 436.418 683.598 436.73C682.986 437.03 682.308 437.18 681.564 437.18C680.82 437.18 680.142 437.03 679.53 436.73C678.918 436.418 678.396 435.98 677.964 435.416C677.532 434.852 677.196 434.174 676.956 433.382C676.728 432.578 676.614 431.684 676.614 430.7ZM685.362 430.7C685.362 429.92 685.278 429.2 685.11 428.54C684.942 427.868 684.696 427.292 684.372 426.812C684.048 426.32 683.652 425.942 683.184 425.678C682.716 425.402 682.176 425.264 681.564 425.264C680.952 425.264 680.412 425.402 679.944 425.678C679.476 425.942 679.08 426.32 678.756 426.812C678.432 427.292 678.186 427.868 678.018 428.54C677.85 429.2 677.766 429.92 677.766 430.7C677.766 431.48 677.85 432.206 678.018 432.878C678.186 433.538 678.432 434.114 678.756 434.606C679.08 435.086 679.476 435.464 679.944 435.74C680.412 436.004 680.952 436.136 681.564 436.136C682.176 436.136 682.716 436.004 683.184 435.74C683.652 435.464 684.048 435.086 684.372 434.606C684.696 434.114 684.942 433.538 685.11 432.878C685.278 432.206 685.362 431.48 685.362 430.7Z" fill="white"></path>
  <rect y="461" width="295" height="238" fill="#C6A46D"></rect>
  <path d="M25.008 671.076V670.032H27.978L28.5 667.386H25.548V666.342H28.716L29.508 662.4H30.588L29.796 666.342H32.964L33.756 662.4H34.836L34.044 666.342H36.996V667.386H33.828L33.306 670.032H36.456V671.076H33.09L32.316 675H31.236L32.01 671.076H28.842L28.068 675H26.988L27.762 671.076H25.008ZM32.226 670.032L32.748 667.386H29.58L29.058 670.032H32.226ZM40.2058 668.7C40.2058 669.54 40.3258 670.29 40.5658 670.95C40.8058 671.61 41.1418 672.168 41.5738 672.624C42.0058 673.08 42.5158 673.428 43.1038 673.668C43.7038 673.908 44.3578 674.028 45.0658 674.028C46.5658 674.028 47.6998 673.662 48.4678 672.93C49.2358 672.198 49.7938 671.19 50.1418 669.906L51.2038 670.338C50.8678 671.79 50.1718 672.96 49.1158 673.848C48.0598 674.736 46.7158 675.18 45.0838 675.18C44.1478 675.18 43.2958 675.018 42.5278 674.694C41.7598 674.358 41.1058 673.902 40.5658 673.326C40.0258 672.75 39.6058 672.066 39.3058 671.274C39.0178 670.482 38.8738 669.624 38.8738 668.7C38.8618 667.8 39.0118 666.954 39.3238 666.162C39.6358 665.358 40.0678 664.662 40.6198 664.074C41.1838 663.486 41.8438 663.03 42.5998 662.706C43.3678 662.37 44.1958 662.208 45.0838 662.22C46.5838 662.22 47.7778 662.61 48.6658 663.39C49.5658 664.17 50.1958 665.166 50.5558 666.378L49.3858 666.9C49.1338 665.808 48.6358 664.95 47.8918 664.326C47.1598 663.69 46.2178 663.372 45.0658 663.372C44.3818 663.372 43.7398 663.498 43.1398 663.75C42.5518 664.002 42.0358 664.362 41.5918 664.83C41.1598 665.286 40.8178 665.844 40.5658 666.504C40.3258 667.152 40.2058 667.884 40.2058 668.7ZM52.6358 668.79C52.6358 667.866 52.7378 667.008 52.9418 666.216C53.1458 665.412 53.4458 664.716 53.8418 664.128C54.2498 663.528 54.7538 663.06 55.3538 662.724C55.9538 662.388 56.6438 662.22 57.4238 662.22C58.5878 662.22 59.5058 662.526 60.1778 663.138C60.8498 663.738 61.2398 664.542 61.3477 665.55L60.2498 665.874C60.1538 664.974 59.8478 664.314 59.3318 663.894C58.8278 663.474 58.1618 663.264 57.3338 663.264C56.8418 663.264 56.3798 663.384 55.9478 663.624C55.5158 663.852 55.1378 664.206 54.8138 664.686C54.5018 665.154 54.2498 665.748 54.0578 666.468C53.8778 667.188 53.7878 668.028 53.7878 668.988V669.204C54.1118 668.532 54.6098 667.98 55.2818 667.548C55.9418 667.116 56.6618 666.9 57.4418 666.9C58.0298 666.9 58.5758 666.996 59.0798 667.188C59.5838 667.38 60.0218 667.656 60.3938 668.016C60.7658 668.364 61.0538 668.784 61.2578 669.276C61.4738 669.768 61.5818 670.32 61.5818 670.932C61.5818 671.568 61.4798 672.144 61.2758 672.66C61.0718 673.176 60.7838 673.626 60.4118 674.01C60.0398 674.382 59.6018 674.67 59.0978 674.874C58.5938 675.078 58.0358 675.18 57.4238 675.18C55.8518 675.18 54.6578 674.592 53.8418 673.416C53.0378 672.252 52.6358 670.71 52.6358 668.79ZM60.4298 671.022C60.4298 670.53 60.3458 670.092 60.1778 669.708C60.0218 669.324 59.7998 669.006 59.5118 668.754C59.2358 668.49 58.9058 668.292 58.5218 668.16C58.1498 668.016 57.7538 667.944 57.3338 667.944C56.9138 667.944 56.5178 668.016 56.1458 668.16C55.7738 668.304 55.4438 668.514 55.1558 668.79C54.8798 669.054 54.6578 669.378 54.4897 669.762C54.3218 670.134 54.2378 670.554 54.2378 671.022C54.2378 671.49 54.3098 671.916 54.4538 672.3C54.6098 672.684 54.8198 673.014 55.0838 673.29C55.3598 673.554 55.6838 673.764 56.0558 673.92C56.4398 674.064 56.8658 674.136 57.3338 674.136C57.8018 674.136 58.2218 674.064 58.5938 673.92C58.9778 673.764 59.3018 673.554 59.5658 673.29C59.8418 673.014 60.0518 672.684 60.1958 672.3C60.3518 671.916 60.4298 671.49 60.4298 671.022ZM67.6555 662.4H69.4195L74.8015 675H73.4695L72.0475 671.616H65.0275L63.6055 675H62.2735L67.6555 662.4ZM71.5615 670.464L68.5375 663.3L65.5135 670.464H71.5615ZM80.9091 671.58H75.2211V670.356C76.2771 669.408 76.9911 668.4 77.3631 667.332C77.7471 666.24 77.9391 664.866 77.9391 663.21V662.4H79.0911V663.21C79.0911 664.794 78.8931 666.18 78.4971 667.368C78.1131 668.556 77.4411 669.612 76.4811 670.536H80.9091V666.288H82.0611V670.536H84.3111V671.58H82.0611V675H80.9091V671.58ZM85.4717 668.79C85.4717 667.866 85.5737 667.008 85.7777 666.216C85.9817 665.412 86.2817 664.716 86.6777 664.128C87.0857 663.528 87.5897 663.06 88.1897 662.724C88.7897 662.388 89.4797 662.22 90.2597 662.22C91.4237 662.22 92.3417 662.526 93.0137 663.138C93.6857 663.738 94.0757 664.542 94.1837 665.55L93.0857 665.874C92.9897 664.974 92.6837 664.314 92.1677 663.894C91.6637 663.474 90.9977 663.264 90.1697 663.264C89.6777 663.264 89.2157 663.384 88.7837 663.624C88.3517 663.852 87.9737 664.206 87.6497 664.686C87.3377 665.154 87.0857 665.748 86.8937 666.468C86.7137 667.188 86.6237 668.028 86.6237 668.988V669.204C86.9477 668.532 87.4457 667.98 88.1177 667.548C88.7777 667.116 89.4977 666.9 90.2777 666.9C90.8657 666.9 91.4117 666.996 91.9157 667.188C92.4197 667.38 92.8577 667.656 93.2297 668.016C93.6017 668.364 93.8897 668.784 94.0937 669.276C94.3097 669.768 94.4177 670.32 94.4177 670.932C94.4177 671.568 94.3157 672.144 94.1117 672.66C93.9077 673.176 93.6197 673.626 93.2477 674.01C92.8757 674.382 92.4377 674.67 91.9337 674.874C91.4297 675.078 90.8717 675.18 90.2597 675.18C88.6877 675.18 87.4937 674.592 86.6777 673.416C85.8737 672.252 85.4717 670.71 85.4717 668.79ZM93.2657 671.022C93.2657 670.53 93.1817 670.092 93.0137 669.708C92.8577 669.324 92.6357 669.006 92.3477 668.754C92.0717 668.49 91.7417 668.292 91.3577 668.16C90.9857 668.016 90.5897 667.944 90.1697 667.944C89.7497 667.944 89.3537 668.016 88.9817 668.16C88.6097 668.304 88.2797 668.514 87.9917 668.79C87.7157 669.054 87.4937 669.378 87.3257 669.762C87.1577 670.134 87.0737 670.554 87.0737 671.022C87.0737 671.49 87.1457 671.916 87.2897 672.3C87.4457 672.684 87.6557 673.014 87.9197 673.29C88.1957 673.554 88.5197 673.764 88.8917 673.92C89.2757 674.064 89.7017 674.136 90.1697 674.136C90.6377 674.136 91.0577 674.064 91.4297 673.92C91.8137 673.764 92.1377 673.554 92.4017 673.29C92.6777 673.014 92.8877 672.684 93.0317 672.3C93.1877 671.916 93.2657 671.49 93.2657 671.022ZM96.649 662.4H101.239C102.211 662.4 103.075 662.556 103.831 662.868C104.587 663.18 105.223 663.618 105.739 664.182C106.267 664.734 106.669 665.394 106.945 666.162C107.221 666.93 107.359 667.776 107.359 668.7C107.359 669.624 107.221 670.47 106.945 671.238C106.669 672.006 106.267 672.672 105.739 673.236C105.223 673.788 104.587 674.22 103.831 674.532C103.075 674.844 102.211 675 101.239 675H96.649V662.4ZM97.909 673.848H101.239C102.787 673.848 103.981 673.398 104.821 672.498C105.673 671.586 106.099 670.32 106.099 668.7C106.099 667.08 105.673 665.82 104.821 664.92C103.981 664.008 102.787 663.552 101.239 663.552H97.909V673.848Z" fill="white"></path>
  <path d="M25.008 671.076V670.032H27.978L28.5 667.386H25.548V666.342H28.716L29.508 662.4H30.588L29.796 666.342H32.964L33.756 662.4H34.836L34.044 666.342H36.996V667.386H33.828L33.306 670.032H36.456V671.076H33.09L32.316 675H31.236L32.01 671.076H28.842L28.068 675H26.988L27.762 671.076H25.008ZM32.226 670.032L32.748 667.386H29.58L29.058 670.032H32.226ZM40.2058 668.7C40.2058 669.54 40.3258 670.29 40.5658 670.95C40.8058 671.61 41.1418 672.168 41.5738 672.624C42.0058 673.08 42.5158 673.428 43.1038 673.668C43.7038 673.908 44.3578 674.028 45.0658 674.028C46.5658 674.028 47.6998 673.662 48.4678 672.93C49.2358 672.198 49.7938 671.19 50.1418 669.906L51.2038 670.338C50.8678 671.79 50.1718 672.96 49.1158 673.848C48.0598 674.736 46.7158 675.18 45.0838 675.18C44.1478 675.18 43.2958 675.018 42.5278 674.694C41.7598 674.358 41.1058 673.902 40.5658 673.326C40.0258 672.75 39.6058 672.066 39.3058 671.274C39.0178 670.482 38.8738 669.624 38.8738 668.7C38.8618 667.8 39.0118 666.954 39.3238 666.162C39.6358 665.358 40.0678 664.662 40.6198 664.074C41.1838 663.486 41.8438 663.03 42.5998 662.706C43.3678 662.37 44.1958 662.208 45.0838 662.22C46.5838 662.22 47.7778 662.61 48.6658 663.39C49.5658 664.17 50.1958 665.166 50.5558 666.378L49.3858 666.9C49.1338 665.808 48.6358 664.95 47.8918 664.326C47.1598 663.69 46.2178 663.372 45.0658 663.372C44.3818 663.372 43.7398 663.498 43.1398 663.75C42.5518 664.002 42.0358 664.362 41.5918 664.83C41.1598 665.286 40.8178 665.844 40.5658 666.504C40.3258 667.152 40.2058 667.884 40.2058 668.7ZM52.6358 668.79C52.6358 667.866 52.7378 667.008 52.9418 666.216C53.1458 665.412 53.4458 664.716 53.8418 664.128C54.2498 663.528 54.7538 663.06 55.3538 662.724C55.9538 662.388 56.6438 662.22 57.4238 662.22C58.5878 662.22 59.5058 662.526 60.1778 663.138C60.8498 663.738 61.2398 664.542 61.3477 665.55L60.2498 665.874C60.1538 664.974 59.8478 664.314 59.3318 663.894C58.8278 663.474 58.1618 663.264 57.3338 663.264C56.8418 663.264 56.3798 663.384 55.9478 663.624C55.5158 663.852 55.1378 664.206 54.8138 664.686C54.5018 665.154 54.2498 665.748 54.0578 666.468C53.8778 667.188 53.7878 668.028 53.7878 668.988V669.204C54.1118 668.532 54.6098 667.98 55.2818 667.548C55.9418 667.116 56.6618 666.9 57.4418 666.9C58.0298 666.9 58.5758 666.996 59.0798 667.188C59.5838 667.38 60.0218 667.656 60.3938 668.016C60.7658 668.364 61.0538 668.784 61.2578 669.276C61.4738 669.768 61.5818 670.32 61.5818 670.932C61.5818 671.568 61.4798 672.144 61.2758 672.66C61.0718 673.176 60.7838 673.626 60.4118 674.01C60.0398 674.382 59.6018 674.67 59.0978 674.874C58.5938 675.078 58.0358 675.18 57.4238 675.18C55.8518 675.18 54.6578 674.592 53.8418 673.416C53.0378 672.252 52.6358 670.71 52.6358 668.79ZM60.4298 671.022C60.4298 670.53 60.3458 670.092 60.1778 669.708C60.0218 669.324 59.7998 669.006 59.5118 668.754C59.2358 668.49 58.9058 668.292 58.5218 668.16C58.1498 668.016 57.7538 667.944 57.3338 667.944C56.9138 667.944 56.5178 668.016 56.1458 668.16C55.7738 668.304 55.4438 668.514 55.1558 668.79C54.8798 669.054 54.6578 669.378 54.4897 669.762C54.3218 670.134 54.2378 670.554 54.2378 671.022C54.2378 671.49 54.3098 671.916 54.4538 672.3C54.6098 672.684 54.8198 673.014 55.0838 673.29C55.3598 673.554 55.6838 673.764 56.0558 673.92C56.4398 674.064 56.8658 674.136 57.3338 674.136C57.8018 674.136 58.2218 674.064 58.5938 673.92C58.9778 673.764 59.3018 673.554 59.5658 673.29C59.8418 673.014 60.0518 672.684 60.1958 672.3C60.3518 671.916 60.4298 671.49 60.4298 671.022ZM67.6555 662.4H69.4195L74.8015 675H73.4695L72.0475 671.616H65.0275L63.6055 675H62.2735L67.6555 662.4ZM71.5615 670.464L68.5375 663.3L65.5135 670.464H71.5615ZM80.9091 671.58H75.2211V670.356C76.2771 669.408 76.9911 668.4 77.3631 667.332C77.7471 666.24 77.9391 664.866 77.9391 663.21V662.4H79.0911V663.21C79.0911 664.794 78.8931 666.18 78.4971 667.368C78.1131 668.556 77.4411 669.612 76.4811 670.536H80.9091V666.288H82.0611V670.536H84.3111V671.58H82.0611V675H80.9091V671.58ZM85.4717 668.79C85.4717 667.866 85.5737 667.008 85.7777 666.216C85.9817 665.412 86.2817 664.716 86.6777 664.128C87.0857 663.528 87.5897 663.06 88.1897 662.724C88.7897 662.388 89.4797 662.22 90.2597 662.22C91.4237 662.22 92.3417 662.526 93.0137 663.138C93.6857 663.738 94.0757 664.542 94.1837 665.55L93.0857 665.874C92.9897 664.974 92.6837 664.314 92.1677 663.894C91.6637 663.474 90.9977 663.264 90.1697 663.264C89.6777 663.264 89.2157 663.384 88.7837 663.624C88.3517 663.852 87.9737 664.206 87.6497 664.686C87.3377 665.154 87.0857 665.748 86.8937 666.468C86.7137 667.188 86.6237 668.028 86.6237 668.988V669.204C86.9477 668.532 87.4457 667.98 88.1177 667.548C88.7777 667.116 89.4977 666.9 90.2777 666.9C90.8657 666.9 91.4117 666.996 91.9157 667.188C92.4197 667.38 92.8577 667.656 93.2297 668.016C93.6017 668.364 93.8897 668.784 94.0937 669.276C94.3097 669.768 94.4177 670.32 94.4177 670.932C94.4177 671.568 94.3157 672.144 94.1117 672.66C93.9077 673.176 93.6197 673.626 93.2477 674.01C92.8757 674.382 92.4377 674.67 91.9337 674.874C91.4297 675.078 90.8717 675.18 90.2597 675.18C88.6877 675.18 87.4937 674.592 86.6777 673.416C85.8737 672.252 85.4717 670.71 85.4717 668.79ZM93.2657 671.022C93.2657 670.53 93.1817 670.092 93.0137 669.708C92.8577 669.324 92.6357 669.006 92.3477 668.754C92.0717 668.49 91.7417 668.292 91.3577 668.16C90.9857 668.016 90.5897 667.944 90.1697 667.944C89.7497 667.944 89.3537 668.016 88.9817 668.16C88.6097 668.304 88.2797 668.514 87.9917 668.79C87.7157 669.054 87.4937 669.378 87.3257 669.762C87.1577 670.134 87.0737 670.554 87.0737 671.022C87.0737 671.49 87.1457 671.916 87.2897 672.3C87.4457 672.684 87.6557 673.014 87.9197 673.29C88.1957 673.554 88.5197 673.764 88.8917 673.92C89.2757 674.064 89.7017 674.136 90.1697 674.136C90.6377 674.136 91.0577 674.064 91.4297 673.92C91.8137 673.764 92.1377 673.554 92.4017 673.29C92.6777 673.014 92.8877 672.684 93.0317 672.3C93.1877 671.916 93.2657 671.49 93.2657 671.022ZM96.649 662.4H101.239C102.211 662.4 103.075 662.556 103.831 662.868C104.587 663.18 105.223 663.618 105.739 664.182C106.267 664.734 106.669 665.394 106.945 666.162C107.221 666.93 107.359 667.776 107.359 668.7C107.359 669.624 107.221 670.47 106.945 671.238C106.669 672.006 106.267 672.672 105.739 673.236C105.223 673.788 104.587 674.22 103.831 674.532C103.075 674.844 102.211 675 101.239 675H96.649V662.4ZM97.909 673.848H101.239C102.787 673.848 103.981 673.398 104.821 672.498C105.673 671.586 106.099 670.32 106.099 668.7C106.099 667.08 105.673 665.82 104.821 664.92C103.981 664.008 102.787 663.552 101.239 663.552H97.909V673.848Z" fill="white"></path>
  <rect x="295" y="461" width="295" height="238" fill="#8E7348"></rect>
  <path d="M320.008 671.076V670.032H322.978L323.5 667.386H320.548V666.342H323.716L324.508 662.4H325.588L324.796 666.342H327.964L328.756 662.4H329.836L329.044 666.342H331.996V667.386H328.828L328.306 670.032H331.456V671.076H328.09L327.316 675H326.236L327.01 671.076H323.842L323.068 675H321.988L322.762 671.076H320.008ZM327.226 670.032L327.748 667.386H324.58L324.058 670.032H327.226ZM333.802 671.4C333.802 670.62 334.024 669.924 334.468 669.312C334.912 668.7 335.53 668.274 336.322 668.034C335.734 667.77 335.278 667.422 334.954 666.99C334.642 666.558 334.486 666.018 334.486 665.37C334.486 664.938 334.576 664.53 334.756 664.146C334.936 663.762 335.188 663.432 335.512 663.156C335.836 662.868 336.22 662.64 336.664 662.472C337.12 662.304 337.618 662.22 338.158 662.22C338.698 662.22 339.19 662.304 339.634 662.472C340.09 662.64 340.48 662.868 340.804 663.156C341.128 663.432 341.38 663.762 341.56 664.146C341.74 664.53 341.83 664.938 341.83 665.37C341.83 666.018 341.668 666.558 341.344 666.99C341.032 667.422 340.582 667.77 339.994 668.034C340.786 668.274 341.404 668.7 341.848 669.312C342.292 669.924 342.514 670.62 342.514 671.4C342.514 671.904 342.418 672.39 342.226 672.858C342.034 673.314 341.752 673.716 341.38 674.064C341.008 674.4 340.552 674.67 340.012 674.874C339.472 675.078 338.854 675.18 338.158 675.18C337.462 675.18 336.844 675.078 336.304 674.874C335.764 674.67 335.308 674.4 334.936 674.064C334.564 673.716 334.282 673.314 334.09 672.858C333.898 672.39 333.802 671.904 333.802 671.4ZM340.678 665.424C340.678 664.74 340.444 664.212 339.976 663.84C339.52 663.456 338.914 663.264 338.158 663.264C337.402 663.264 336.79 663.456 336.322 663.84C335.866 664.212 335.638 664.74 335.638 665.424C335.638 666.108 335.866 666.648 336.322 667.044C336.79 667.428 337.402 667.62 338.158 667.62C338.914 667.62 339.52 667.428 339.976 667.044C340.444 666.648 340.678 666.108 340.678 665.424ZM341.362 671.328C341.362 670.464 341.068 669.786 340.48 669.294C339.904 668.802 339.13 668.556 338.158 668.556C337.186 668.556 336.406 668.802 335.818 669.294C335.242 669.786 334.954 670.464 334.954 671.328C334.954 672.192 335.23 672.876 335.782 673.38C336.346 673.884 337.138 674.136 338.158 674.136C339.178 674.136 339.964 673.884 340.516 673.38C341.08 672.876 341.362 672.192 341.362 671.328ZM353.247 662.4V663.552H346.011V667.908H352.707V669.06H346.011V673.848H353.427V675H344.751V662.4H353.247ZM362.814 662.4V663.264C361.518 664.236 360.486 665.46 359.718 666.936C358.938 668.424 358.548 670.122 358.548 672.03C358.548 672.966 358.62 673.956 358.764 675H357.558C357.45 674.172 357.396 673.248 357.396 672.228C357.396 668.724 358.644 665.796 361.14 663.444H354.804V662.4H362.814ZM365.003 671.238C365.195 672.102 365.579 672.804 366.155 673.344C366.743 673.872 367.505 674.136 368.441 674.136C368.873 674.136 369.281 674.07 369.665 673.938C370.061 673.794 370.403 673.59 370.691 673.326C370.979 673.062 371.207 672.744 371.375 672.372C371.555 671.988 371.645 671.556 371.645 671.076C371.645 670.056 371.357 669.27 370.781 668.718C370.205 668.154 369.443 667.872 368.495 667.872C368.159 667.872 367.811 667.938 367.451 668.07C367.103 668.19 366.815 668.346 366.587 668.538L365.903 667.692L370.529 663.444H364.445V662.4H372.365V663.174L368.135 666.99C368.315 666.954 368.561 666.936 368.873 666.936C369.425 666.936 369.941 667.026 370.421 667.206C370.901 667.386 371.315 667.65 371.663 667.998C372.023 668.334 372.299 668.748 372.491 669.24C372.695 669.72 372.797 670.272 372.797 670.896C372.797 671.556 372.683 672.15 372.455 672.678C372.227 673.206 371.915 673.656 371.519 674.028C371.123 674.4 370.661 674.688 370.133 674.892C369.605 675.084 369.041 675.18 368.441 675.18C367.277 675.18 366.293 674.856 365.489 674.208C364.673 673.56 364.139 672.732 363.887 671.724L365.003 671.238ZM380.005 671.58H374.317V670.356C375.373 669.408 376.087 668.4 376.459 667.332C376.843 666.24 377.035 664.866 377.035 663.21V662.4H378.187V663.21C378.187 664.794 377.989 666.18 377.593 667.368C377.209 668.556 376.537 669.612 375.577 670.536H380.005V666.288H381.157V670.536H383.407V671.58H381.157V675H380.005V671.58ZM384.743 671.4C384.743 670.62 384.965 669.924 385.409 669.312C385.853 668.7 386.471 668.274 387.263 668.034C386.675 667.77 386.219 667.422 385.895 666.99C385.583 666.558 385.427 666.018 385.427 665.37C385.427 664.938 385.517 664.53 385.697 664.146C385.877 663.762 386.129 663.432 386.453 663.156C386.777 662.868 387.161 662.64 387.605 662.472C388.061 662.304 388.559 662.22 389.099 662.22C389.639 662.22 390.131 662.304 390.575 662.472C391.031 662.64 391.421 662.868 391.745 663.156C392.069 663.432 392.321 663.762 392.501 664.146C392.681 664.53 392.771 664.938 392.771 665.37C392.771 666.018 392.609 666.558 392.285 666.99C391.973 667.422 391.523 667.77 390.935 668.034C391.727 668.274 392.345 668.7 392.789 669.312C393.233 669.924 393.455 670.62 393.455 671.4C393.455 671.904 393.359 672.39 393.167 672.858C392.975 673.314 392.693 673.716 392.321 674.064C391.949 674.4 391.493 674.67 390.953 674.874C390.413 675.078 389.795 675.18 389.099 675.18C388.403 675.18 387.785 675.078 387.245 674.874C386.705 674.67 386.249 674.4 385.877 674.064C385.505 673.716 385.223 673.314 385.031 672.858C384.839 672.39 384.743 671.904 384.743 671.4ZM391.619 665.424C391.619 664.74 391.385 664.212 390.917 663.84C390.461 663.456 389.855 663.264 389.099 663.264C388.343 663.264 387.731 663.456 387.263 663.84C386.807 664.212 386.579 664.74 386.579 665.424C386.579 666.108 386.807 666.648 387.263 667.044C387.731 667.428 388.343 667.62 389.099 667.62C389.855 667.62 390.461 667.428 390.917 667.044C391.385 666.648 391.619 666.108 391.619 665.424ZM392.303 671.328C392.303 670.464 392.009 669.786 391.421 669.294C390.845 668.802 390.071 668.556 389.099 668.556C388.127 668.556 387.347 668.802 386.759 669.294C386.183 669.786 385.895 670.464 385.895 671.328C385.895 672.192 386.171 672.876 386.723 673.38C387.287 673.884 388.079 674.136 389.099 674.136C390.119 674.136 390.905 673.884 391.457 673.38C392.021 672.876 392.303 672.192 392.303 671.328Z" fill="white"></path>
  <rect x="590" y="461" width="295" height="238" fill="#9CC3B7"></rect>
  <path d="M615.008 671.076V670.032H617.978L618.5 667.386H615.548V666.342H618.716L619.508 662.4H620.588L619.796 666.342H622.964L623.756 662.4H624.836L624.044 666.342H626.996V667.386H623.828L623.306 670.032H626.456V671.076H623.09L622.316 675H621.236L622.01 671.076H618.842L618.068 675H616.988L617.762 671.076H615.008ZM622.226 670.032L622.748 667.386H619.58L619.058 670.032H622.226ZM629.9 671.184C629.996 672.132 630.32 672.864 630.872 673.38C631.436 673.884 632.204 674.136 633.176 674.136C633.656 674.136 634.112 674.034 634.544 673.83C634.988 673.614 635.378 673.284 635.714 672.84C636.05 672.384 636.32 671.808 636.524 671.112C636.728 670.416 636.836 669.588 636.848 668.628L636.83 668.034C636.53 668.766 636.038 669.36 635.354 669.816C634.682 670.272 633.962 670.5 633.194 670.5C632.594 670.5 632.036 670.404 631.52 670.212C631.004 670.02 630.554 669.744 630.17 669.384C629.786 669.024 629.48 668.592 629.252 668.088C629.036 667.572 628.928 667.002 628.928 666.378C628.928 665.766 629.036 665.208 629.252 664.704C629.468 664.2 629.762 663.762 630.134 663.39C630.518 663.018 630.962 662.73 631.466 662.526C631.97 662.322 632.51 662.22 633.086 662.22C634.718 662.22 635.924 662.796 636.704 663.948C637.484 665.112 637.874 666.666 637.874 668.61C637.874 669.57 637.772 670.452 637.568 671.256C637.364 672.048 637.058 672.738 636.65 673.326C636.254 673.914 635.756 674.37 635.156 674.694C634.568 675.018 633.878 675.18 633.086 675.18C632.486 675.18 631.934 675.084 631.43 674.892C630.938 674.688 630.506 674.418 630.134 674.082C629.762 673.734 629.456 673.344 629.216 672.912C628.988 672.468 628.85 672 628.802 671.508L629.9 671.184ZM636.272 666.378C636.272 665.91 636.194 665.484 636.038 665.1C635.894 664.716 635.684 664.392 635.408 664.128C635.144 663.852 634.82 663.642 634.436 663.498C634.064 663.342 633.644 663.264 633.176 663.264C632.708 663.264 632.282 663.342 631.898 663.498C631.526 663.642 631.202 663.852 630.926 664.128C630.662 664.392 630.452 664.716 630.296 665.1C630.152 665.484 630.08 665.91 630.08 666.378C630.08 666.87 630.158 667.308 630.314 667.692C630.482 668.076 630.704 668.4 630.98 668.664C631.268 668.916 631.598 669.114 631.97 669.258C632.354 669.39 632.756 669.456 633.176 669.456C633.596 669.456 633.992 669.384 634.364 669.24C634.736 669.096 635.06 668.892 635.336 668.628C635.624 668.352 635.852 668.028 636.02 667.656C636.188 667.272 636.272 666.846 636.272 666.378ZM640.858 668.7C640.858 669.54 640.978 670.29 641.218 670.95C641.458 671.61 641.794 672.168 642.226 672.624C642.658 673.08 643.168 673.428 643.756 673.668C644.356 673.908 645.01 674.028 645.718 674.028C647.218 674.028 648.352 673.662 649.12 672.93C649.888 672.198 650.446 671.19 650.794 669.906L651.856 670.338C651.52 671.79 650.824 672.96 649.768 673.848C648.712 674.736 647.368 675.18 645.736 675.18C644.8 675.18 643.948 675.018 643.18 674.694C642.412 674.358 641.758 673.902 641.218 673.326C640.678 672.75 640.258 672.066 639.958 671.274C639.67 670.482 639.526 669.624 639.526 668.7C639.514 667.8 639.664 666.954 639.976 666.162C640.288 665.358 640.72 664.662 641.272 664.074C641.836 663.486 642.496 663.03 643.252 662.706C644.02 662.37 644.848 662.208 645.736 662.22C647.236 662.22 648.43 662.61 649.318 663.39C650.218 664.17 650.848 665.166 651.208 666.378L650.038 666.9C649.786 665.808 649.288 664.95 648.544 664.326C647.812 663.69 646.87 663.372 645.718 663.372C645.034 663.372 644.392 663.498 643.792 663.75C643.204 664.002 642.688 664.362 642.244 664.83C641.812 665.286 641.47 665.844 641.218 666.504C640.978 667.152 640.858 667.884 640.858 668.7ZM654.692 668.7C654.692 669.54 654.812 670.29 655.052 670.95C655.292 671.61 655.628 672.168 656.06 672.624C656.492 673.08 657.002 673.428 657.59 673.668C658.19 673.908 658.844 674.028 659.552 674.028C661.052 674.028 662.186 673.662 662.954 672.93C663.722 672.198 664.28 671.19 664.628 669.906L665.69 670.338C665.354 671.79 664.658 672.96 663.602 673.848C662.546 674.736 661.202 675.18 659.57 675.18C658.634 675.18 657.782 675.018 657.014 674.694C656.246 674.358 655.592 673.902 655.052 673.326C654.512 672.75 654.092 672.066 653.792 671.274C653.504 670.482 653.36 669.624 653.36 668.7C653.348 667.8 653.498 666.954 653.81 666.162C654.122 665.358 654.554 664.662 655.106 664.074C655.67 663.486 656.33 663.03 657.086 662.706C657.854 662.37 658.682 662.208 659.57 662.22C661.07 662.22 662.264 662.61 663.152 663.39C664.052 664.17 664.682 665.166 665.042 666.378L663.872 666.9C663.62 665.808 663.122 664.95 662.378 664.326C661.646 663.69 660.704 663.372 659.552 663.372C658.868 663.372 658.226 663.498 657.626 663.75C657.038 664.002 656.522 664.362 656.078 664.83C655.646 665.286 655.304 665.844 655.052 666.504C654.812 667.152 654.692 667.884 654.692 668.7ZM667.878 671.238C668.07 672.102 668.454 672.804 669.03 673.344C669.618 673.872 670.38 674.136 671.316 674.136C671.748 674.136 672.156 674.07 672.54 673.938C672.936 673.794 673.278 673.59 673.566 673.326C673.854 673.062 674.082 672.744 674.25 672.372C674.43 671.988 674.52 671.556 674.52 671.076C674.52 670.056 674.232 669.27 673.656 668.718C673.08 668.154 672.318 667.872 671.37 667.872C671.034 667.872 670.686 667.938 670.326 668.07C669.978 668.19 669.69 668.346 669.462 668.538L668.778 667.692L673.404 663.444H667.32V662.4H675.24V663.174L671.01 666.99C671.19 666.954 671.436 666.936 671.748 666.936C672.3 666.936 672.816 667.026 673.296 667.206C673.776 667.386 674.19 667.65 674.538 667.998C674.898 668.334 675.174 668.748 675.366 669.24C675.57 669.72 675.672 670.272 675.672 670.896C675.672 671.556 675.558 672.15 675.33 672.678C675.102 673.206 674.79 673.656 674.394 674.028C673.998 674.4 673.536 674.688 673.008 674.892C672.48 675.084 671.916 675.18 671.316 675.18C670.152 675.18 669.168 674.856 668.364 674.208C667.548 673.56 667.014 672.732 666.762 671.724L667.878 671.238ZM677.948 662.4H683.402C684.014 662.4 684.56 662.484 685.04 662.652C685.52 662.808 685.928 663.03 686.264 663.318C686.6 663.606 686.858 663.948 687.038 664.344C687.218 664.728 687.308 665.148 687.308 665.604C687.308 666.228 687.14 666.804 686.804 667.332C686.468 667.848 686.042 668.232 685.526 668.484C686.246 668.796 686.798 669.198 687.182 669.69C687.566 670.182 687.758 670.824 687.758 671.616C687.758 672.096 687.656 672.546 687.452 672.966C687.248 673.374 686.966 673.728 686.606 674.028C686.258 674.328 685.838 674.568 685.346 674.748C684.866 674.916 684.344 675 683.78 675H677.948V662.4ZM683.636 667.98C684.356 667.98 684.944 667.788 685.4 667.404C685.856 667.008 686.084 666.462 686.084 665.766C686.084 665.082 685.844 664.542 685.364 664.146C684.872 663.75 684.296 663.552 683.636 663.552H679.208V667.98H683.636ZM683.762 673.848C684.554 673.848 685.196 673.644 685.688 673.236C686.192 672.816 686.444 672.228 686.444 671.472C686.444 670.716 686.192 670.128 685.688 669.708C685.196 669.276 684.554 669.06 683.762 669.06H679.208V673.848H683.762ZM696.592 662.4V663.264C695.296 664.236 694.264 665.46 693.496 666.936C692.716 668.424 692.326 670.122 692.326 672.03C692.326 672.966 692.398 673.956 692.542 675H691.336C691.228 674.172 691.174 673.248 691.174 672.228C691.174 668.724 692.422 665.796 694.918 663.444H688.582V662.4H696.592Z" fill="white"></path>
  <rect x="885" y="461" width="295" height="238" fill="#EEF2F0"></rect>
  <path d="M910.008 671.076V670.032H912.978L913.5 667.386H910.548V666.342H913.716L914.508 662.4H915.588L914.796 666.342H917.964L918.756 662.4H919.836L919.044 666.342H921.996V667.386H918.828L918.306 670.032H921.456V671.076H918.09L917.316 675H916.236L917.01 671.076H913.842L913.068 675H911.988L912.762 671.076H910.008ZM917.226 670.032L917.748 667.386H914.58L914.058 670.032H917.226ZM932.946 662.4V663.552H925.71V667.908H932.406V669.06H925.71V673.848H933.126V675H924.45V662.4H932.946ZM944.143 662.4V663.552H936.907V667.908H943.603V669.06H936.907V673.848H944.323V675H935.647V662.4H944.143ZM955.322 662.4V663.552H948.104V668.304H954.782V669.456H948.104V675H946.844V662.4H955.322ZM961.127 669.906C961.739 669.618 962.255 669.336 962.675 669.06C963.107 668.772 963.455 668.478 963.719 668.178C963.983 667.866 964.175 667.542 964.295 667.206C964.415 666.858 964.475 666.474 964.475 666.054C964.475 665.214 964.187 664.542 963.611 664.038C963.035 663.522 962.273 663.264 961.325 663.264C960.869 663.264 960.455 663.342 960.083 663.498C959.711 663.642 959.387 663.84 959.111 664.092C958.847 664.332 958.643 664.62 958.499 664.956C958.355 665.28 958.283 665.622 958.283 665.982C958.283 666.426 958.337 666.822 958.445 667.17C958.565 667.518 958.739 667.854 958.967 668.178L957.995 668.808C957.371 667.968 957.059 667.08 957.059 666.144C957.059 665.604 957.161 665.1 957.365 664.632C957.569 664.152 957.857 663.738 958.229 663.39C958.613 663.03 959.069 662.748 959.597 662.544C960.125 662.328 960.713 662.22 961.361 662.22C962.021 662.22 962.615 662.316 963.143 662.508C963.671 662.688 964.115 662.952 964.475 663.3C964.847 663.636 965.129 664.038 965.321 664.506C965.525 664.974 965.627 665.484 965.627 666.036C965.627 667.116 965.351 668.004 964.799 668.7C964.247 669.384 963.341 670.02 962.081 670.608C961.037 671.088 960.215 671.592 959.615 672.12C959.027 672.636 958.715 673.248 958.679 673.956H965.663V675H957.329C957.329 674.364 957.413 673.794 957.581 673.29C957.749 672.774 957.995 672.312 958.319 671.904C958.643 671.496 959.039 671.13 959.507 670.806C959.975 670.482 960.515 670.182 961.127 669.906ZM976.522 662.4V663.552H969.304V668.304H975.982V669.456H969.304V675H968.044V662.4H976.522ZM978.294 668.7C978.294 667.716 978.408 666.828 978.636 666.036C978.876 665.232 979.212 664.548 979.644 663.984C980.076 663.42 980.598 662.988 981.21 662.688C981.822 662.376 982.5 662.22 983.244 662.22C983.988 662.22 984.666 662.376 985.278 662.688C985.89 662.988 986.412 663.42 986.844 663.984C987.276 664.548 987.606 665.232 987.834 666.036C988.074 666.828 988.194 667.716 988.194 668.7C988.194 669.684 988.074 670.578 987.834 671.382C987.606 672.174 987.276 672.852 986.844 673.416C986.412 673.98 985.89 674.418 985.278 674.73C984.666 675.03 983.988 675.18 983.244 675.18C982.5 675.18 981.822 675.03 981.21 674.73C980.598 674.418 980.076 673.98 979.644 673.416C979.212 672.852 978.876 672.174 978.636 671.382C978.408 670.578 978.294 669.684 978.294 668.7ZM987.042 668.7C987.042 667.92 986.958 667.2 986.79 666.54C986.622 665.868 986.376 665.292 986.052 664.812C985.728 664.32 985.332 663.942 984.864 663.678C984.396 663.402 983.856 663.264 983.244 663.264C982.632 663.264 982.092 663.402 981.624 663.678C981.156 663.942 980.76 664.32 980.436 664.812C980.112 665.292 979.866 665.868 979.698 666.54C979.53 667.2 979.446 667.92 979.446 668.7C979.446 669.48 979.53 670.206 979.698 670.878C979.866 671.538 980.112 672.114 980.436 672.606C980.76 673.086 981.156 673.464 981.624 673.74C982.092 674.004 982.632 674.136 983.244 674.136C983.856 674.136 984.396 674.004 984.864 673.74C985.332 673.464 985.728 673.086 986.052 672.606C986.376 672.114 986.622 671.538 986.79 670.878C986.958 670.206 987.042 669.48 987.042 668.7Z" fill="black"></path>
</svg>
